<mxfile host="Electron" modified="2023-04-29T06:01:35.998Z" agent="Mozilla/5.0 (Windows NT 10.0; Win64; x64) AppleWebKit/537.36 (KHTML, like Gecko) draw.io/21.1.2 Chrome/106.0.5249.199 Electron/21.4.3 Safari/537.36" etag="Ii8UyOPBbCaqyIvxXy7s" version="21.1.2" type="device">
  <diagram name="PÃ¡gina-1" id="-37fiKzTfTFrvlBXJHoI">
    <mxGraphModel dx="3680" dy="1171" grid="0" gridSize="10" guides="1" tooltips="1" connect="1" arrows="1" fold="1" page="1" pageScale="1" pageWidth="1654" pageHeight="1169" math="0" shadow="0">
      <root>
        <mxCell id="0" />
        <mxCell id="1" parent="0" />
        <mxCell id="kLqBszuAOoGfDPWovw_3-4" value="" style="rounded=0;whiteSpace=wrap;html=1;fillColor=none;strokeColor=#6c8ebf;dashed=1;strokeWidth=2;" parent="1" vertex="1">
          <mxGeometry x="-512" y="704.5" width="427" height="446" as="geometry" />
        </mxCell>
        <mxCell id="kLqBszuAOoGfDPWovw_3-9" value="" style="rounded=0;whiteSpace=wrap;html=1;fillColor=#f5f5f5;fontColor=#333333;strokeColor=#000000;fillStyle=auto;opacity=50;dashed=1;dashPattern=1 1;strokeWidth=2;" parent="1" vertex="1">
          <mxGeometry x="-485" y="951" width="373" height="178" as="geometry" />
        </mxCell>
        <mxCell id="vQ1yZcKt1P1H_fzuq0_L-75" value="" style="rounded=0;whiteSpace=wrap;html=1;fillColor=none;strokeColor=#6c8ebf;dashed=1;strokeWidth=2;" parent="1" vertex="1">
          <mxGeometry x="47.75" y="704.5" width="808.25" height="446" as="geometry" />
        </mxCell>
        <mxCell id="piXn53ShzP-eT9wFTnDq-95" value="" style="rounded=0;whiteSpace=wrap;html=1;fillColor=none;strokeColor=#6c8ebf;dashed=1;strokeWidth=2;" parent="1" vertex="1">
          <mxGeometry x="1258" y="73" width="322" height="627" as="geometry" />
        </mxCell>
        <mxCell id="piXn53ShzP-eT9wFTnDq-112" value="" style="rounded=1;whiteSpace=wrap;html=1;fillColor=none;fontColor=#ffffff;strokeColor=#006EAF;" parent="1" vertex="1">
          <mxGeometry x="1271.75" y="278" width="295.37" height="58" as="geometry" />
        </mxCell>
        <mxCell id="piXn53ShzP-eT9wFTnDq-111" value="" style="rounded=1;whiteSpace=wrap;html=1;fillColor=none;fontColor=#ffffff;strokeColor=#006EAF;" parent="1" vertex="1">
          <mxGeometry x="1271.75" y="215" width="295.37" height="58" as="geometry" />
        </mxCell>
        <mxCell id="piXn53ShzP-eT9wFTnDq-108" value="" style="rounded=1;whiteSpace=wrap;html=1;fillColor=none;fontColor=#ffffff;strokeColor=#006EAF;" parent="1" vertex="1">
          <mxGeometry x="1271.75" y="152" width="295.37" height="58" as="geometry" />
        </mxCell>
        <mxCell id="piXn53ShzP-eT9wFTnDq-20" value="" style="rounded=0;whiteSpace=wrap;html=1;fillColor=none;strokeColor=#6c8ebf;dashed=1;strokeWidth=2;" parent="1" vertex="1">
          <mxGeometry x="47.75" y="184.5" width="808.25" height="446" as="geometry" />
        </mxCell>
        <mxCell id="piXn53ShzP-eT9wFTnDq-21" value="" style="rounded=1;whiteSpace=wrap;html=1;fillColor=none;fontColor=#ffffff;strokeColor=#006EAF;" parent="1" vertex="1">
          <mxGeometry x="65.75" y="265.5" width="758.25" height="83" as="geometry" />
        </mxCell>
        <mxCell id="piXn53ShzP-eT9wFTnDq-22" value="" style="rounded=1;whiteSpace=wrap;html=1;fillColor=none;fontColor=#ffffff;strokeColor=#006EAF;" parent="1" vertex="1">
          <mxGeometry x="65.75" y="374.5" width="760.25" height="83" as="geometry" />
        </mxCell>
        <mxCell id="piXn53ShzP-eT9wFTnDq-23" value="" style="rounded=1;whiteSpace=wrap;html=1;fillColor=none;fontColor=#ffffff;strokeColor=#006EAF;" parent="1" vertex="1">
          <mxGeometry x="65.25" y="480.5" width="760.75" height="83" as="geometry" />
        </mxCell>
        <mxCell id="piXn53ShzP-eT9wFTnDq-24" value="" style="rounded=0;whiteSpace=wrap;html=1;fillColor=#f5f5f5;fontColor=#333333;strokeColor=#000000;fillStyle=auto;opacity=50;dashed=1;dashPattern=1 1;strokeWidth=2;" parent="1" vertex="1">
          <mxGeometry x="101.75" y="242.5" width="119" height="344" as="geometry" />
        </mxCell>
        <mxCell id="piXn53ShzP-eT9wFTnDq-25" value="" style="rounded=0;whiteSpace=wrap;html=1;fillColor=#f5f5f5;fontColor=#333333;strokeColor=#000000;fillStyle=auto;opacity=50;dashed=1;dashPattern=1 1;strokeWidth=2;" parent="1" vertex="1">
          <mxGeometry x="319.75" y="242.5" width="119" height="344" as="geometry" />
        </mxCell>
        <mxCell id="piXn53ShzP-eT9wFTnDq-26" value="" style="rounded=0;whiteSpace=wrap;html=1;fillColor=#f5f5f5;fontColor=#333333;strokeColor=#000000;fillStyle=auto;opacity=50;dashed=1;dashPattern=1 1;strokeWidth=2;" parent="1" vertex="1">
          <mxGeometry x="613.75" y="242.5" width="119" height="344" as="geometry" />
        </mxCell>
        <mxCell id="piXn53ShzP-eT9wFTnDq-28" value="" style="rounded=0;whiteSpace=wrap;html=1;fillColor=#dae8fc;strokeColor=#6c8ebf;" parent="1" vertex="1">
          <mxGeometry x="119.75" y="276" width="78" height="277" as="geometry" />
        </mxCell>
        <mxCell id="piXn53ShzP-eT9wFTnDq-31" value="" style="rounded=1;whiteSpace=wrap;html=1;fillColor=#d5e8d4;strokeColor=#000000;" parent="1" vertex="1">
          <mxGeometry x="509.75" y="281.5" width="31" height="260" as="geometry" />
        </mxCell>
        <mxCell id="piXn53ShzP-eT9wFTnDq-39" value="" style="image;aspect=fixed;html=1;points=[];align=center;fontSize=12;image=img/lib/azure2/compute/Virtual_Machine.svg;" parent="1" vertex="1">
          <mxGeometry x="358.2299999999998" y="396.5" width="42.05" height="39" as="geometry" />
        </mxCell>
        <mxCell id="piXn53ShzP-eT9wFTnDq-40" value="" style="image;aspect=fixed;html=1;points=[];align=center;fontSize=12;image=img/lib/azure2/compute/Virtual_Machine.svg;" parent="1" vertex="1">
          <mxGeometry x="358.2299999999998" y="502.5" width="42.05" height="39" as="geometry" />
        </mxCell>
        <mxCell id="piXn53ShzP-eT9wFTnDq-41" value="" style="image;aspect=fixed;html=1;points=[];align=center;fontSize=12;image=img/lib/azure2/compute/Virtual_Machine.svg;" parent="1" vertex="1">
          <mxGeometry x="358.2299999999998" y="287.5" width="42.05" height="39" as="geometry" />
        </mxCell>
        <mxCell id="piXn53ShzP-eT9wFTnDq-42" value="" style="image;aspect=fixed;html=1;points=[];align=center;fontSize=12;image=img/lib/azure2/compute/Virtual_Machine.svg;" parent="1" vertex="1">
          <mxGeometry x="652.2299999999998" y="390" width="42.05" height="39" as="geometry" />
        </mxCell>
        <mxCell id="piXn53ShzP-eT9wFTnDq-43" value="" style="image;aspect=fixed;html=1;points=[];align=center;fontSize=12;image=img/lib/azure2/compute/Virtual_Machine.svg;" parent="1" vertex="1">
          <mxGeometry x="652.2299999999998" y="502" width="42.05" height="39" as="geometry" />
        </mxCell>
        <mxCell id="piXn53ShzP-eT9wFTnDq-44" value="" style="image;aspect=fixed;html=1;points=[];align=center;fontSize=12;image=img/lib/azure2/compute/Virtual_Machine.svg;" parent="1" vertex="1">
          <mxGeometry x="652.2299999999998" y="287" width="42.05" height="39" as="geometry" />
        </mxCell>
        <mxCell id="piXn53ShzP-eT9wFTnDq-45" value="Zona 1" style="text;html=1;strokeColor=none;fillColor=none;align=center;verticalAlign=middle;whiteSpace=wrap;rounded=0;" parent="1" vertex="1">
          <mxGeometry x="766" y="291.5" width="60" height="30" as="geometry" />
        </mxCell>
        <mxCell id="piXn53ShzP-eT9wFTnDq-46" value="Zona 2" style="text;html=1;strokeColor=none;fillColor=none;align=center;verticalAlign=middle;whiteSpace=wrap;rounded=0;" parent="1" vertex="1">
          <mxGeometry x="764" y="411" width="60" height="30" as="geometry" />
        </mxCell>
        <mxCell id="piXn53ShzP-eT9wFTnDq-47" value="Zona 3" style="text;html=1;strokeColor=none;fillColor=none;align=center;verticalAlign=middle;whiteSpace=wrap;rounded=0;" parent="1" vertex="1">
          <mxGeometry x="764" y="502.5" width="60" height="30" as="geometry" />
        </mxCell>
        <mxCell id="piXn53ShzP-eT9wFTnDq-48" value="AppGW-Subnet" style="text;html=1;strokeColor=none;fillColor=none;align=center;verticalAlign=middle;whiteSpace=wrap;rounded=0;" parent="1" vertex="1">
          <mxGeometry x="111" y="213" width="94.5" height="21.5" as="geometry" />
        </mxCell>
        <mxCell id="piXn53ShzP-eT9wFTnDq-49" value="Front-End-Subnet" style="text;html=1;strokeColor=none;fillColor=none;align=center;verticalAlign=middle;whiteSpace=wrap;rounded=0;" parent="1" vertex="1">
          <mxGeometry x="328.25" y="213" width="110.5" height="23" as="geometry" />
        </mxCell>
        <mxCell id="piXn53ShzP-eT9wFTnDq-56" value="" style="group" parent="1" vertex="1" connectable="0">
          <mxGeometry x="127.25" y="449.5" width="60" height="65" as="geometry" />
        </mxCell>
        <mxCell id="piXn53ShzP-eT9wFTnDq-53" value="" style="image;aspect=fixed;html=1;points=[];align=center;fontSize=12;image=img/lib/azure2/networking/Web_Application_Firewall_Policies_WAF.svg;" parent="piXn53ShzP-eT9wFTnDq-56" vertex="1">
          <mxGeometry x="9" width="42" height="42" as="geometry" />
        </mxCell>
        <mxCell id="piXn53ShzP-eT9wFTnDq-55" value="WAF" style="text;html=1;strokeColor=none;fillColor=none;align=center;verticalAlign=middle;whiteSpace=wrap;rounded=0;" parent="piXn53ShzP-eT9wFTnDq-56" vertex="1">
          <mxGeometry y="42" width="60" height="23" as="geometry" />
        </mxCell>
        <mxCell id="piXn53ShzP-eT9wFTnDq-57" value="" style="group" parent="1" vertex="1" connectable="0">
          <mxGeometry x="127.25" y="333.5" width="60" height="75" as="geometry" />
        </mxCell>
        <mxCell id="piXn53ShzP-eT9wFTnDq-52" value="" style="image;sketch=0;aspect=fixed;html=1;points=[];align=center;fontSize=12;image=img/lib/mscae/Application_Gateway.svg;" parent="piXn53ShzP-eT9wFTnDq-57" vertex="1">
          <mxGeometry x="5" width="50" height="50" as="geometry" />
        </mxCell>
        <mxCell id="piXn53ShzP-eT9wFTnDq-54" value="AppGW" style="text;html=1;strokeColor=none;fillColor=none;align=center;verticalAlign=middle;whiteSpace=wrap;rounded=0;" parent="piXn53ShzP-eT9wFTnDq-57" vertex="1">
          <mxGeometry y="45" width="60" height="30" as="geometry" />
        </mxCell>
        <mxCell id="piXn53ShzP-eT9wFTnDq-58" value="" style="image;sketch=0;aspect=fixed;html=1;points=[];align=center;fontSize=12;image=img/lib/mscae/Load_Balancer_feature.svg;" parent="1" vertex="1">
          <mxGeometry x="498.75" y="383.5" width="53" height="53" as="geometry" />
        </mxCell>
        <mxCell id="piXn53ShzP-eT9wFTnDq-62" value="" style="endArrow=classic;html=1;rounded=0;exitX=1.004;exitY=0.517;exitDx=0;exitDy=0;exitPerimeter=0;entryX=-0.026;entryY=0.794;entryDx=0;entryDy=0;entryPerimeter=0;strokeWidth=2;fillColor=#e3c800;strokeColor=#B09500;" parent="1" target="piXn53ShzP-eT9wFTnDq-41" edge="1">
          <mxGeometry width="50" height="50" relative="1" as="geometry">
            <mxPoint x="198.0619999999999" y="409.209" as="sourcePoint" />
            <mxPoint x="294.75" y="303.5" as="targetPoint" />
          </mxGeometry>
        </mxCell>
        <mxCell id="piXn53ShzP-eT9wFTnDq-63" value="" style="endArrow=classic;html=1;rounded=0;exitX=1;exitY=0;exitDx=0;exitDy=0;strokeWidth=2;fillColor=#e3c800;strokeColor=#B09500;" parent="1" edge="1">
          <mxGeometry width="50" height="50" relative="1" as="geometry">
            <mxPoint x="197.75" y="409.5" as="sourcePoint" />
            <mxPoint x="351" y="410" as="targetPoint" />
          </mxGeometry>
        </mxCell>
        <mxCell id="piXn53ShzP-eT9wFTnDq-64" value="" style="endArrow=classic;html=1;rounded=0;entryX=-0.037;entryY=-0.037;entryDx=0;entryDy=0;entryPerimeter=0;strokeWidth=2;fillColor=#e3c800;strokeColor=#B09500;" parent="1" target="piXn53ShzP-eT9wFTnDq-40" edge="1">
          <mxGeometry width="50" height="50" relative="1" as="geometry">
            <mxPoint x="197.75" y="409.5" as="sourcePoint" />
            <mxPoint x="293.75" y="512.5" as="targetPoint" />
          </mxGeometry>
        </mxCell>
        <mxCell id="piXn53ShzP-eT9wFTnDq-65" value="" style="endArrow=classic;html=1;rounded=0;entryX=0.017;entryY=0.655;entryDx=0;entryDy=0;entryPerimeter=0;strokeWidth=2;fillColor=#e3c800;strokeColor=#B09500;" parent="1" target="piXn53ShzP-eT9wFTnDq-44" edge="1">
          <mxGeometry width="50" height="50" relative="1" as="geometry">
            <mxPoint x="553" y="408" as="sourcePoint" />
            <mxPoint x="550.6808309307771" y="324.00000000000006" as="targetPoint" />
          </mxGeometry>
        </mxCell>
        <mxCell id="piXn53ShzP-eT9wFTnDq-66" value="" style="endArrow=classic;html=1;rounded=0;strokeWidth=2;fillColor=#e3c800;strokeColor=#B09500;" parent="1" target="piXn53ShzP-eT9wFTnDq-42" edge="1">
          <mxGeometry width="50" height="50" relative="1" as="geometry">
            <mxPoint x="553" y="410" as="sourcePoint" />
            <mxPoint x="543.3561499999996" y="409.13200000000006" as="targetPoint" />
          </mxGeometry>
        </mxCell>
        <mxCell id="piXn53ShzP-eT9wFTnDq-67" value="" style="endArrow=classic;html=1;rounded=0;entryX=0.031;entryY=0.011;entryDx=0;entryDy=0;entryPerimeter=0;strokeWidth=2;fillColor=#e3c800;strokeColor=#B09500;" parent="1" target="piXn53ShzP-eT9wFTnDq-43" edge="1">
          <mxGeometry width="50" height="50" relative="1" as="geometry">
            <mxPoint x="553" y="412" as="sourcePoint" />
            <mxPoint x="543.8607499999998" y="500.89700000000005" as="targetPoint" />
          </mxGeometry>
        </mxCell>
        <mxCell id="piXn53ShzP-eT9wFTnDq-70" value="" style="endArrow=classic;html=1;rounded=0;entryX=0.021;entryY=0.487;entryDx=0;entryDy=0;entryPerimeter=0;strokeWidth=2;fillColor=#e3c800;strokeColor=#B09500;" parent="1" target="piXn53ShzP-eT9wFTnDq-58" edge="1">
          <mxGeometry width="50" height="50" relative="1" as="geometry">
            <mxPoint x="405" y="409" as="sourcePoint" />
            <mxPoint x="429.74775" y="409.085" as="targetPoint" />
          </mxGeometry>
        </mxCell>
        <mxCell id="piXn53ShzP-eT9wFTnDq-71" value="" style="endArrow=classic;html=1;rounded=0;exitX=0.995;exitY=-0.037;exitDx=0;exitDy=0;exitPerimeter=0;entryX=0.189;entryY=0.849;entryDx=0;entryDy=0;entryPerimeter=0;strokeWidth=2;fillColor=#e3c800;strokeColor=#B09500;" parent="1" source="piXn53ShzP-eT9wFTnDq-40" target="piXn53ShzP-eT9wFTnDq-58" edge="1">
          <mxGeometry width="50" height="50" relative="1" as="geometry">
            <mxPoint x="338.23199999999997" y="532.2090000000001" as="sourcePoint" />
            <mxPoint x="438.9200000000001" y="424.5" as="targetPoint" />
          </mxGeometry>
        </mxCell>
        <mxCell id="piXn53ShzP-eT9wFTnDq-74" value="" style="endArrow=classic;html=1;rounded=0;entryX=0.189;entryY=0.113;entryDx=0;entryDy=0;entryPerimeter=0;exitX=1.006;exitY=0.798;exitDx=0;exitDy=0;exitPerimeter=0;strokeWidth=2;fillColor=#e3c800;strokeColor=#B09500;" parent="1" source="piXn53ShzP-eT9wFTnDq-41" target="piXn53ShzP-eT9wFTnDq-58" edge="1">
          <mxGeometry width="50" height="50" relative="1" as="geometry">
            <mxPoint x="386.75" y="300.1" as="sourcePoint" />
            <mxPoint x="438.8607499999998" y="392.49700000000007" as="targetPoint" />
          </mxGeometry>
        </mxCell>
        <mxCell id="piXn53ShzP-eT9wFTnDq-82" value="" style="image;aspect=fixed;html=1;points=[];align=center;fontSize=12;image=img/lib/azure2/networking/Network_Security_Groups.svg;" parent="1" vertex="1">
          <mxGeometry x="88.4" y="569" width="26.35" height="32" as="geometry" />
        </mxCell>
        <mxCell id="piXn53ShzP-eT9wFTnDq-85" value="Internal Load Balancer&lt;br&gt;lb-back-end-01" style="text;html=1;strokeColor=none;fillColor=none;align=center;verticalAlign=middle;whiteSpace=wrap;rounded=0;" parent="1" vertex="1">
          <mxGeometry x="462.25" y="229.5" width="126" height="30" as="geometry" />
        </mxCell>
        <mxCell id="piXn53ShzP-eT9wFTnDq-86" value="" style="image;aspect=fixed;html=1;points=[];align=center;fontSize=12;image=img/lib/azure2/networking/Virtual_Networks.svg;" parent="1" vertex="1">
          <mxGeometry x="29.75" y="165.5" width="67" height="40" as="geometry" />
        </mxCell>
        <mxCell id="piXn53ShzP-eT9wFTnDq-87" value="VNET-SPOKE01&lt;br&gt;10.1.0.0/16" style="text;html=1;strokeColor=none;fillColor=none;align=center;verticalAlign=middle;whiteSpace=wrap;rounded=0;" parent="1" vertex="1">
          <mxGeometry x="16" y="125.5" width="94.5" height="30" as="geometry" />
        </mxCell>
        <mxCell id="piXn53ShzP-eT9wFTnDq-90" value="" style="rounded=0;whiteSpace=wrap;html=1;fillColor=#f5f5f5;fontColor=#333333;strokeColor=#000000;fillStyle=auto;opacity=50;dashed=1;dashPattern=1 1;strokeWidth=2;" parent="1" vertex="1">
          <mxGeometry x="1359.25" y="123.5" width="132" height="235.5" as="geometry" />
        </mxCell>
        <mxCell id="piXn53ShzP-eT9wFTnDq-91" value="" style="image;aspect=fixed;html=1;points=[];align=center;fontSize=12;image=img/lib/azure2/compute/Virtual_Machine.svg;" parent="1" vertex="1">
          <mxGeometry x="1404.2299999999998" y="225" width="42.05" height="39" as="geometry" />
        </mxCell>
        <mxCell id="piXn53ShzP-eT9wFTnDq-92" value="" style="image;aspect=fixed;html=1;points=[];align=center;fontSize=12;image=img/lib/azure2/compute/Virtual_Machine.svg;" parent="1" vertex="1">
          <mxGeometry x="1404.2299999999998" y="286" width="42.05" height="39" as="geometry" />
        </mxCell>
        <mxCell id="piXn53ShzP-eT9wFTnDq-93" value="" style="image;aspect=fixed;html=1;points=[];align=center;fontSize=12;image=img/lib/azure2/compute/Virtual_Machine.svg;" parent="1" vertex="1">
          <mxGeometry x="1404.2299999999998" y="163" width="42.05" height="39" as="geometry" />
        </mxCell>
        <mxCell id="piXn53ShzP-eT9wFTnDq-94" value="" style="image;aspect=fixed;html=1;points=[];align=center;fontSize=12;image=img/lib/azure2/networking/Network_Security_Groups.svg;" parent="1" vertex="1">
          <mxGeometry x="1477.75" y="103" width="26.35" height="32" as="geometry" />
        </mxCell>
        <mxCell id="piXn53ShzP-eT9wFTnDq-96" value="" style="rounded=1;whiteSpace=wrap;html=1;fillColor=#d5e8d4;strokeColor=#000000;" parent="1" vertex="1">
          <mxGeometry x="914" y="281.5" width="31" height="260" as="geometry" />
        </mxCell>
        <mxCell id="piXn53ShzP-eT9wFTnDq-97" value="" style="image;sketch=0;aspect=fixed;html=1;points=[];align=center;fontSize=12;image=img/lib/mscae/Load_Balancer_feature.svg;" parent="1" vertex="1">
          <mxGeometry x="903" y="383.5" width="53" height="53" as="geometry" />
        </mxCell>
        <mxCell id="piXn53ShzP-eT9wFTnDq-99" value="" style="endArrow=classic;html=1;rounded=0;strokeColor=#B09500;strokeWidth=2;fillColor=#e3c800;entryX=0;entryY=0.475;entryDx=0;entryDy=0;entryPerimeter=0;" parent="1" edge="1" target="piXn53ShzP-eT9wFTnDq-97">
          <mxGeometry width="50" height="50" relative="1" as="geometry">
            <mxPoint x="696" y="407" as="sourcePoint" />
            <mxPoint x="900" y="408" as="targetPoint" />
          </mxGeometry>
        </mxCell>
        <mxCell id="piXn53ShzP-eT9wFTnDq-100" value="" style="endArrow=classic;html=1;rounded=0;strokeColor=#B09500;strokeWidth=2;fillColor=#e3c800;entryX=-0.006;entryY=0.626;entryDx=0;entryDy=0;entryPerimeter=0;exitX=1.008;exitY=0.623;exitDx=0;exitDy=0;exitPerimeter=0;" parent="1" source="piXn53ShzP-eT9wFTnDq-43" edge="1" target="piXn53ShzP-eT9wFTnDq-97">
          <mxGeometry width="50" height="50" relative="1" as="geometry">
            <mxPoint x="686.6163999999999" y="502.46799999999996" as="sourcePoint" />
            <mxPoint x="944.01" y="424.9989999999999" as="targetPoint" />
          </mxGeometry>
        </mxCell>
        <mxCell id="piXn53ShzP-eT9wFTnDq-101" value="" style="endArrow=classic;html=1;rounded=0;exitX=1.019;exitY=0.018;exitDx=0;exitDy=0;exitPerimeter=0;strokeColor=#B09500;strokeWidth=2;fillColor=#e3c800;entryX=0.006;entryY=0.33;entryDx=0;entryDy=0;entryPerimeter=0;" parent="1" source="piXn53ShzP-eT9wFTnDq-44" edge="1" target="piXn53ShzP-eT9wFTnDq-97">
          <mxGeometry width="50" height="50" relative="1" as="geometry">
            <mxPoint x="687.5835500000001" y="314.846" as="sourcePoint" />
            <mxPoint x="909" y="388" as="targetPoint" />
          </mxGeometry>
        </mxCell>
        <mxCell id="piXn53ShzP-eT9wFTnDq-106" value="" style="image;aspect=fixed;html=1;points=[];align=center;fontSize=12;image=img/lib/azure2/networking/Virtual_Networks.svg;" parent="1" vertex="1">
          <mxGeometry x="1249" y="53" width="67" height="40" as="geometry" />
        </mxCell>
        <mxCell id="piXn53ShzP-eT9wFTnDq-107" value="VNET-SPOKE02&lt;br&gt;10.2.0.0/16" style="text;html=1;strokeColor=none;fillColor=none;align=center;verticalAlign=middle;whiteSpace=wrap;rounded=0;" parent="1" vertex="1">
          <mxGeometry x="1235.25" y="13" width="94.5" height="30" as="geometry" />
        </mxCell>
        <mxCell id="piXn53ShzP-eT9wFTnDq-113" value="Database Subnet" style="text;html=1;strokeColor=none;fillColor=none;align=center;verticalAlign=middle;whiteSpace=wrap;rounded=0;" parent="1" vertex="1">
          <mxGeometry x="1381.25" y="89.5" width="88" height="30" as="geometry" />
        </mxCell>
        <mxCell id="piXn53ShzP-eT9wFTnDq-114" value="Zona 1" style="text;html=1;strokeColor=none;fillColor=none;align=center;verticalAlign=middle;whiteSpace=wrap;rounded=0;" parent="1" vertex="1">
          <mxGeometry x="1500.25" y="175.5" width="60" height="30" as="geometry" />
        </mxCell>
        <mxCell id="piXn53ShzP-eT9wFTnDq-115" value="Zona 2" style="text;html=1;strokeColor=none;fillColor=none;align=center;verticalAlign=middle;whiteSpace=wrap;rounded=0;" parent="1" vertex="1">
          <mxGeometry x="1498.25" y="228" width="60" height="30" as="geometry" />
        </mxCell>
        <mxCell id="piXn53ShzP-eT9wFTnDq-116" value="Zona 3" style="text;html=1;strokeColor=none;fillColor=none;align=center;verticalAlign=middle;whiteSpace=wrap;rounded=0;" parent="1" vertex="1">
          <mxGeometry x="1498.25" y="287.5" width="60" height="30" as="geometry" />
        </mxCell>
        <mxCell id="vQ1yZcKt1P1H_fzuq0_L-42" value="" style="rounded=1;whiteSpace=wrap;html=1;fillColor=none;fontColor=#ffffff;strokeColor=#006EAF;" parent="1" vertex="1">
          <mxGeometry x="1271.75" y="598" width="295.37" height="58" as="geometry" />
        </mxCell>
        <mxCell id="vQ1yZcKt1P1H_fzuq0_L-43" value="" style="rounded=1;whiteSpace=wrap;html=1;fillColor=none;fontColor=#ffffff;strokeColor=#006EAF;" parent="1" vertex="1">
          <mxGeometry x="1271.75" y="535" width="295.37" height="58" as="geometry" />
        </mxCell>
        <mxCell id="vQ1yZcKt1P1H_fzuq0_L-44" value="" style="rounded=1;whiteSpace=wrap;html=1;fillColor=none;fontColor=#ffffff;strokeColor=#006EAF;" parent="1" vertex="1">
          <mxGeometry x="1271.75" y="472" width="295.37" height="58" as="geometry" />
        </mxCell>
        <mxCell id="vQ1yZcKt1P1H_fzuq0_L-45" value="" style="rounded=0;whiteSpace=wrap;html=1;fillColor=#f5f5f5;fontColor=#333333;strokeColor=#000000;fillStyle=auto;opacity=50;dashed=1;dashPattern=1 1;strokeWidth=2;" parent="1" vertex="1">
          <mxGeometry x="1359.25" y="443.5" width="132" height="235.5" as="geometry" />
        </mxCell>
        <mxCell id="vQ1yZcKt1P1H_fzuq0_L-46" value="" style="image;aspect=fixed;html=1;points=[];align=center;fontSize=12;image=img/lib/azure2/networking/Network_Security_Groups.svg;" parent="1" vertex="1">
          <mxGeometry x="1477.75" y="423" width="26.35" height="32" as="geometry" />
        </mxCell>
        <mxCell id="vQ1yZcKt1P1H_fzuq0_L-47" value="Integration Subnet" style="text;html=1;strokeColor=none;fillColor=none;align=center;verticalAlign=middle;whiteSpace=wrap;rounded=0;" parent="1" vertex="1">
          <mxGeometry x="1381.25" y="409.5" width="88" height="30" as="geometry" />
        </mxCell>
        <mxCell id="vQ1yZcKt1P1H_fzuq0_L-48" value="Zona 1" style="text;html=1;strokeColor=none;fillColor=none;align=center;verticalAlign=middle;whiteSpace=wrap;rounded=0;" parent="1" vertex="1">
          <mxGeometry x="1500.25" y="495.5" width="60" height="30" as="geometry" />
        </mxCell>
        <mxCell id="vQ1yZcKt1P1H_fzuq0_L-49" value="Zona 2" style="text;html=1;strokeColor=none;fillColor=none;align=center;verticalAlign=middle;whiteSpace=wrap;rounded=0;" parent="1" vertex="1">
          <mxGeometry x="1498.25" y="548" width="60" height="30" as="geometry" />
        </mxCell>
        <mxCell id="vQ1yZcKt1P1H_fzuq0_L-50" value="Zona 3" style="text;html=1;strokeColor=none;fillColor=none;align=center;verticalAlign=middle;whiteSpace=wrap;rounded=0;" parent="1" vertex="1">
          <mxGeometry x="1498.25" y="607.5" width="60" height="30" as="geometry" />
        </mxCell>
        <mxCell id="vQ1yZcKt1P1H_fzuq0_L-51" value="" style="image;aspect=fixed;html=1;points=[];align=center;fontSize=12;image=img/lib/azure2/compute/Virtual_Machine.svg;" parent="1" vertex="1">
          <mxGeometry x="1404.2299999999998" y="545" width="42.05" height="39" as="geometry" />
        </mxCell>
        <mxCell id="vQ1yZcKt1P1H_fzuq0_L-52" value="" style="image;aspect=fixed;html=1;points=[];align=center;fontSize=12;image=img/lib/azure2/compute/Virtual_Machine.svg;" parent="1" vertex="1">
          <mxGeometry x="1404.2299999999998" y="606" width="42.05" height="39" as="geometry" />
        </mxCell>
        <mxCell id="vQ1yZcKt1P1H_fzuq0_L-53" value="" style="image;aspect=fixed;html=1;points=[];align=center;fontSize=12;image=img/lib/azure2/compute/Virtual_Machine.svg;" parent="1" vertex="1">
          <mxGeometry x="1404.2299999999998" y="483" width="42.05" height="39" as="geometry" />
        </mxCell>
        <mxCell id="vQ1yZcKt1P1H_fzuq0_L-54" value="" style="rounded=1;whiteSpace=wrap;html=1;fillColor=#d5e8d4;strokeColor=#000000;" parent="1" vertex="1">
          <mxGeometry x="1166" y="147.5" width="31" height="177" as="geometry" />
        </mxCell>
        <mxCell id="vQ1yZcKt1P1H_fzuq0_L-55" value="" style="image;sketch=0;aspect=fixed;html=1;points=[];align=center;fontSize=12;image=img/lib/mscae/Load_Balancer_feature.svg;" parent="1" vertex="1">
          <mxGeometry x="1155" y="212" width="53" height="53" as="geometry" />
        </mxCell>
        <mxCell id="vQ1yZcKt1P1H_fzuq0_L-56" value="" style="rounded=1;whiteSpace=wrap;html=1;fillColor=#d5e8d4;strokeColor=#000000;" parent="1" vertex="1">
          <mxGeometry x="1166" y="470" width="31" height="177" as="geometry" />
        </mxCell>
        <mxCell id="vQ1yZcKt1P1H_fzuq0_L-57" value="" style="image;sketch=0;aspect=fixed;html=1;points=[];align=center;fontSize=12;image=img/lib/mscae/Load_Balancer_feature.svg;" parent="1" vertex="1">
          <mxGeometry x="1155" y="534.5" width="53" height="53" as="geometry" />
        </mxCell>
        <mxCell id="vQ1yZcKt1P1H_fzuq0_L-58" value="" style="endArrow=classic;html=1;rounded=0;exitX=1.015;exitY=0.463;exitDx=0;exitDy=0;exitPerimeter=0;strokeWidth=2;fillColor=#fff2cc;strokeColor=#d6b656;entryX=0;entryY=0.481;entryDx=0;entryDy=0;entryPerimeter=0;" parent="1" target="vQ1yZcKt1P1H_fzuq0_L-55" edge="1">
          <mxGeometry width="50" height="50" relative="1" as="geometry">
            <mxPoint x="956" y="408.69" as="sourcePoint" />
            <mxPoint x="1150.9799999999996" y="322.0342281428672" as="targetPoint" />
          </mxGeometry>
        </mxCell>
        <mxCell id="vQ1yZcKt1P1H_fzuq0_L-59" value="" style="endArrow=classic;html=1;rounded=0;exitX=1.026;exitY=0.528;exitDx=0;exitDy=0;exitPerimeter=0;entryX=-0.035;entryY=0.487;entryDx=0;entryDy=0;entryPerimeter=0;strokeWidth=2;fillColor=#fff2cc;strokeColor=#d6b656;" parent="1" target="vQ1yZcKt1P1H_fzuq0_L-57" edge="1">
          <mxGeometry width="50" height="50" relative="1" as="geometry">
            <mxPoint x="956" y="411.69" as="sourcePoint" />
            <mxPoint x="1148.49905" y="495.96700000000004" as="targetPoint" />
          </mxGeometry>
        </mxCell>
        <mxCell id="vQ1yZcKt1P1H_fzuq0_L-63" value="" style="endArrow=classic;html=1;rounded=0;exitX=1.015;exitY=0.463;exitDx=0;exitDy=0;exitPerimeter=0;strokeWidth=2;fillColor=#fff2cc;strokeColor=#d6b656;" parent="1" edge="1">
          <mxGeometry width="50" height="50" relative="1" as="geometry">
            <mxPoint x="1208.25" y="559.19" as="sourcePoint" />
            <mxPoint x="1359" y="493" as="targetPoint" />
          </mxGeometry>
        </mxCell>
        <mxCell id="vQ1yZcKt1P1H_fzuq0_L-64" value="" style="endArrow=classic;html=1;rounded=0;strokeWidth=2;fillColor=#fff2cc;strokeColor=#d6b656;" parent="1" edge="1">
          <mxGeometry width="50" height="50" relative="1" as="geometry">
            <mxPoint x="1208" y="560.69" as="sourcePoint" />
            <mxPoint x="1355" y="561" as="targetPoint" />
          </mxGeometry>
        </mxCell>
        <mxCell id="vQ1yZcKt1P1H_fzuq0_L-65" value="" style="endArrow=classic;html=1;rounded=0;exitX=1.026;exitY=0.528;exitDx=0;exitDy=0;exitPerimeter=0;entryX=0.301;entryY=0.745;entryDx=0;entryDy=0;entryPerimeter=0;strokeWidth=2;fillColor=#fff2cc;strokeColor=#d6b656;" parent="1" edge="1">
          <mxGeometry width="50" height="50" relative="1" as="geometry">
            <mxPoint x="1208.25" y="562.19" as="sourcePoint" />
            <mxPoint x="1358" y="614" as="targetPoint" />
          </mxGeometry>
        </mxCell>
        <mxCell id="vQ1yZcKt1P1H_fzuq0_L-66" value="" style="endArrow=classic;html=1;rounded=0;exitX=1.015;exitY=0.463;exitDx=0;exitDy=0;exitPerimeter=0;strokeWidth=2;fillColor=#fff2cc;strokeColor=#d6b656;" parent="1" edge="1">
          <mxGeometry width="50" height="50" relative="1" as="geometry">
            <mxPoint x="1208.25" y="235.19000000000005" as="sourcePoint" />
            <mxPoint x="1359" y="169" as="targetPoint" />
          </mxGeometry>
        </mxCell>
        <mxCell id="vQ1yZcKt1P1H_fzuq0_L-67" value="" style="endArrow=classic;html=1;rounded=0;strokeWidth=2;fillColor=#fff2cc;strokeColor=#d6b656;" parent="1" edge="1">
          <mxGeometry width="50" height="50" relative="1" as="geometry">
            <mxPoint x="1208" y="236.69000000000005" as="sourcePoint" />
            <mxPoint x="1355" y="237" as="targetPoint" />
          </mxGeometry>
        </mxCell>
        <mxCell id="vQ1yZcKt1P1H_fzuq0_L-68" value="" style="endArrow=classic;html=1;rounded=0;exitX=1.026;exitY=0.528;exitDx=0;exitDy=0;exitPerimeter=0;entryX=0.301;entryY=0.745;entryDx=0;entryDy=0;entryPerimeter=0;strokeWidth=2;fillColor=#fff2cc;strokeColor=#d6b656;" parent="1" edge="1">
          <mxGeometry width="50" height="50" relative="1" as="geometry">
            <mxPoint x="1208.25" y="238.19000000000005" as="sourcePoint" />
            <mxPoint x="1358" y="290" as="targetPoint" />
          </mxGeometry>
        </mxCell>
        <mxCell id="vQ1yZcKt1P1H_fzuq0_L-82" style="edgeStyle=orthogonalEdgeStyle;rounded=0;orthogonalLoop=1;jettySize=auto;html=1;startArrow=block;startFill=1;strokeWidth=2;" parent="1" source="vQ1yZcKt1P1H_fzuq0_L-75" edge="1">
          <mxGeometry relative="1" as="geometry">
            <Array as="points">
              <mxPoint x="1529" y="1133" />
            </Array>
            <mxPoint x="1529" y="699" as="targetPoint" />
          </mxGeometry>
        </mxCell>
        <mxCell id="vQ1yZcKt1P1H_fzuq0_L-76" value="" style="image;aspect=fixed;html=1;points=[];align=center;fontSize=12;image=img/lib/azure2/networking/Virtual_Networks.svg;" parent="1" vertex="1">
          <mxGeometry x="29.75" y="685.5" width="67" height="40" as="geometry" />
        </mxCell>
        <mxCell id="vQ1yZcKt1P1H_fzuq0_L-77" value="VNET-HUB&lt;br&gt;10.0.0.0/16" style="text;html=1;strokeColor=none;fillColor=none;align=center;verticalAlign=middle;whiteSpace=wrap;rounded=0;" parent="1" vertex="1">
          <mxGeometry x="16" y="645.5" width="94.5" height="30" as="geometry" />
        </mxCell>
        <mxCell id="vQ1yZcKt1P1H_fzuq0_L-78" value="" style="endArrow=classic;startArrow=classic;html=1;rounded=0;strokeWidth=2;" parent="1" edge="1">
          <mxGeometry width="50" height="50" relative="1" as="geometry">
            <mxPoint x="462" y="707" as="sourcePoint" />
            <mxPoint x="462" y="631" as="targetPoint" />
          </mxGeometry>
        </mxCell>
        <mxCell id="vQ1yZcKt1P1H_fzuq0_L-79" value="Peering" style="text;html=1;strokeColor=none;fillColor=none;align=center;verticalAlign=middle;whiteSpace=wrap;rounded=0;" parent="1" vertex="1">
          <mxGeometry x="466" y="653" width="55" height="30" as="geometry" />
        </mxCell>
        <mxCell id="vQ1yZcKt1P1H_fzuq0_L-80" value="Peering" style="text;html=1;strokeColor=none;fillColor=none;align=center;verticalAlign=middle;whiteSpace=wrap;rounded=0;" parent="1" vertex="1">
          <mxGeometry x="1172" y="1104" width="55" height="30" as="geometry" />
        </mxCell>
        <mxCell id="vQ1yZcKt1P1H_fzuq0_L-83" value="" style="rounded=0;whiteSpace=wrap;html=1;fillColor=#f5f5f5;fontColor=#333333;strokeColor=#000000;fillStyle=auto;opacity=50;dashed=1;dashPattern=1 1;strokeWidth=2;" parent="1" vertex="1">
          <mxGeometry x="191" y="842" width="173" height="130" as="geometry" />
        </mxCell>
        <mxCell id="vQ1yZcKt1P1H_fzuq0_L-84" value="" style="image;sketch=0;aspect=fixed;html=1;points=[];align=center;fontSize=12;image=img/lib/mscae/VPN_Gateway.svg;" parent="1" vertex="1">
          <mxGeometry x="255" y="887" width="45" height="50" as="geometry" />
        </mxCell>
        <mxCell id="kLqBszuAOoGfDPWovw_3-17" style="edgeStyle=orthogonalEdgeStyle;rounded=0;orthogonalLoop=1;jettySize=auto;html=1;entryX=1;entryY=0.5;entryDx=0;entryDy=0;entryPerimeter=0;strokeWidth=2;" parent="1" source="vQ1yZcKt1P1H_fzuq0_L-85" target="kLqBszuAOoGfDPWovw_3-32" edge="1">
          <mxGeometry relative="1" as="geometry">
            <Array as="points">
              <mxPoint x="-40" y="906" />
              <mxPoint x="-40" y="1031" />
            </Array>
          </mxGeometry>
        </mxCell>
        <mxCell id="vQ1yZcKt1P1H_fzuq0_L-85" value="" style="image;sketch=0;aspect=fixed;html=1;points=[];align=center;fontSize=12;image=img/lib/mscae/Local_Network_Gateways.svg;" parent="1" vertex="1">
          <mxGeometry x="68.75" y="881.5" width="50" height="50" as="geometry" />
        </mxCell>
        <mxCell id="kLqBszuAOoGfDPWovw_3-1" value="LNG01" style="text;html=1;strokeColor=none;fillColor=none;align=center;verticalAlign=middle;whiteSpace=wrap;rounded=0;" parent="1" vertex="1">
          <mxGeometry x="66.25" y="934" width="55" height="18" as="geometry" />
        </mxCell>
        <mxCell id="kLqBszuAOoGfDPWovw_3-2" value="VNG01" style="text;html=1;strokeColor=none;fillColor=none;align=center;verticalAlign=middle;whiteSpace=wrap;rounded=0;" parent="1" vertex="1">
          <mxGeometry x="250" y="938.5" width="55" height="19" as="geometry" />
        </mxCell>
        <mxCell id="kLqBszuAOoGfDPWovw_3-3" value="GatewaySubnet&lt;br&gt;10.0.255.0/24" style="text;html=1;strokeColor=none;fillColor=none;align=center;verticalAlign=middle;whiteSpace=wrap;rounded=0;" parent="1" vertex="1">
          <mxGeometry x="197.75" y="851" width="89.5" height="19" as="geometry" />
        </mxCell>
        <mxCell id="kLqBszuAOoGfDPWovw_3-6" value="On-Premises Network" style="text;html=1;strokeColor=none;fillColor=none;align=center;verticalAlign=middle;whiteSpace=wrap;rounded=0;" parent="1" vertex="1">
          <mxGeometry x="-512" y="670" width="122" height="30" as="geometry" />
        </mxCell>
        <mxCell id="kLqBszuAOoGfDPWovw_3-7" value="" style="rounded=0;whiteSpace=wrap;html=1;fillColor=#f5f5f5;fontColor=#333333;strokeColor=#000000;fillStyle=auto;opacity=50;dashed=1;dashPattern=1 1;strokeWidth=2;" parent="1" vertex="1">
          <mxGeometry x="-485" y="745" width="373" height="178" as="geometry" />
        </mxCell>
        <mxCell id="kLqBszuAOoGfDPWovw_3-11" value="" style="shape=mxgraph.cisco.buildings.generic_building;html=1;pointerEvents=1;dashed=0;fillColor=#5b6167;strokeColor=#ffffff;strokeWidth=2;verticalLabelPosition=bottom;verticalAlign=top;align=center;outlineConnect=0;" parent="1" vertex="1">
          <mxGeometry x="-626" y="824" width="90" height="136" as="geometry" />
        </mxCell>
        <mxCell id="kLqBszuAOoGfDPWovw_3-12" value="" style="image;aspect=fixed;html=1;points=[];align=center;fontSize=12;image=img/lib/azure2/identity/Azure_Active_Directory.svg;" parent="1" vertex="1">
          <mxGeometry x="-309.19" y="135" width="70" height="64" as="geometry" />
        </mxCell>
        <mxCell id="kLqBszuAOoGfDPWovw_3-16" value="" style="endArrow=classic;startArrow=classic;html=1;rounded=0;strokeWidth=2;entryX=1.017;entryY=0.518;entryDx=0;entryDy=0;entryPerimeter=0;exitX=0;exitY=0.5;exitDx=0;exitDy=0;" parent="1" source="vQ1yZcKt1P1H_fzuq0_L-83" target="vQ1yZcKt1P1H_fzuq0_L-85" edge="1">
          <mxGeometry width="50" height="50" relative="1" as="geometry">
            <mxPoint x="154.25" y="1064" as="sourcePoint" />
            <mxPoint x="154.25" y="988" as="targetPoint" />
          </mxGeometry>
        </mxCell>
        <mxCell id="kLqBszuAOoGfDPWovw_3-30" value="" style="group" parent="1" vertex="1" connectable="0">
          <mxGeometry x="-306" y="772.5" width="72.62" height="105.5" as="geometry" />
        </mxCell>
        <mxCell id="kLqBszuAOoGfDPWovw_3-27" value="" style="sketch=0;aspect=fixed;pointerEvents=1;shadow=0;dashed=0;html=1;strokeColor=none;labelPosition=center;verticalLabelPosition=bottom;verticalAlign=top;align=center;fillColor=#4aa8ec;shape=mxgraph.mscae.enterprise.windows_server;gradientColor=#50e6ff;gradientDirection=north;" parent="kLqBszuAOoGfDPWovw_3-30" vertex="1">
          <mxGeometry x="11" width="61.62" height="79" as="geometry" />
        </mxCell>
        <mxCell id="kLqBszuAOoGfDPWovw_3-28" value="Azure &lt;br&gt;AD Connect" style="text;html=1;strokeColor=none;fillColor=none;align=center;verticalAlign=middle;whiteSpace=wrap;rounded=0;" parent="kLqBszuAOoGfDPWovw_3-30" vertex="1">
          <mxGeometry y="89.5" width="70" height="18" as="geometry" />
        </mxCell>
        <mxCell id="kLqBszuAOoGfDPWovw_3-31" value="" style="group" parent="1" vertex="1" connectable="0">
          <mxGeometry x="-409" y="772.5" width="66.62" height="109" as="geometry" />
        </mxCell>
        <mxCell id="kLqBszuAOoGfDPWovw_3-14" value="" style="sketch=0;aspect=fixed;pointerEvents=1;shadow=0;dashed=0;html=1;strokeColor=none;labelPosition=center;verticalLabelPosition=bottom;verticalAlign=top;align=center;fillColor=#4aa8ec;shape=mxgraph.mscae.enterprise.windows_server;gradientColor=#50e6ff;gradientDirection=north;" parent="kLqBszuAOoGfDPWovw_3-31" vertex="1">
          <mxGeometry x="5" width="61.62" height="79" as="geometry" />
        </mxCell>
        <mxCell id="kLqBszuAOoGfDPWovw_3-25" value="Domain&lt;br&gt;Controller" style="text;html=1;strokeColor=none;fillColor=none;align=center;verticalAlign=middle;whiteSpace=wrap;rounded=0;" parent="kLqBszuAOoGfDPWovw_3-31" vertex="1">
          <mxGeometry y="91" width="55" height="18" as="geometry" />
        </mxCell>
        <mxCell id="kLqBszuAOoGfDPWovw_3-35" style="edgeStyle=orthogonalEdgeStyle;rounded=0;orthogonalLoop=1;jettySize=auto;html=1;" parent="1" source="kLqBszuAOoGfDPWovw_3-32" target="kLqBszuAOoGfDPWovw_3-33" edge="1">
          <mxGeometry relative="1" as="geometry" />
        </mxCell>
        <mxCell id="kLqBszuAOoGfDPWovw_3-36" value="" style="group" parent="1" vertex="1" connectable="0">
          <mxGeometry x="-412" y="1011.5" width="55" height="65" as="geometry" />
        </mxCell>
        <mxCell id="kLqBszuAOoGfDPWovw_3-33" value="" style="image;aspect=fixed;html=1;points=[];align=center;fontSize=12;image=img/lib/azure2/compute/Virtual_Machine.svg;" parent="kLqBszuAOoGfDPWovw_3-36" vertex="1">
          <mxGeometry x="6.469999999999743" width="42.05" height="39" as="geometry" />
        </mxCell>
        <mxCell id="kLqBszuAOoGfDPWovw_3-34" value="Clients" style="text;html=1;strokeColor=none;fillColor=none;align=center;verticalAlign=middle;whiteSpace=wrap;rounded=0;" parent="kLqBszuAOoGfDPWovw_3-36" vertex="1">
          <mxGeometry y="47" width="55" height="18" as="geometry" />
        </mxCell>
        <mxCell id="kLqBszuAOoGfDPWovw_3-38" value="" style="group" parent="1" vertex="1" connectable="0">
          <mxGeometry x="-267.19" y="1006" width="55" height="69.5" as="geometry" />
        </mxCell>
        <mxCell id="kLqBszuAOoGfDPWovw_3-32" value="" style="sketch=0;aspect=fixed;pointerEvents=1;shadow=0;dashed=0;html=1;strokeColor=none;labelPosition=center;verticalLabelPosition=bottom;verticalAlign=top;align=center;fillColor=#5b6167;shape=mxgraph.mscae.enterprise.gateway" parent="kLqBszuAOoGfDPWovw_3-38" vertex="1">
          <mxGeometry x="2.5" width="50" height="50" as="geometry" />
        </mxCell>
        <mxCell id="kLqBszuAOoGfDPWovw_3-37" value="Gateway" style="text;html=1;strokeColor=none;fillColor=none;align=center;verticalAlign=middle;whiteSpace=wrap;rounded=0;" parent="kLqBszuAOoGfDPWovw_3-38" vertex="1">
          <mxGeometry y="51.5" width="55" height="18" as="geometry" />
        </mxCell>
        <mxCell id="kLqBszuAOoGfDPWovw_3-40" style="edgeStyle=orthogonalEdgeStyle;rounded=0;orthogonalLoop=1;jettySize=auto;html=1;" parent="1" target="kLqBszuAOoGfDPWovw_3-12" edge="1">
          <mxGeometry relative="1" as="geometry">
            <mxPoint x="-274.19000000000005" y="772.5" as="sourcePoint" />
          </mxGeometry>
        </mxCell>
        <mxCell id="kLqBszuAOoGfDPWovw_3-41" value="Azure AD" style="text;html=1;strokeColor=none;fillColor=none;align=center;verticalAlign=middle;whiteSpace=wrap;rounded=0;" parent="1" vertex="1">
          <mxGeometry x="-301.69" y="110" width="55" height="18" as="geometry" />
        </mxCell>
        <mxCell id="kLqBszuAOoGfDPWovw_3-43" value="" style="sketch=0;pointerEvents=1;shadow=0;dashed=0;html=1;strokeColor=none;labelPosition=center;verticalLabelPosition=bottom;verticalAlign=top;align=center;fillColor=#505050;shape=mxgraph.mscae.intune.user_group" parent="1" vertex="1">
          <mxGeometry x="-225" y="148.5" width="50" height="37" as="geometry" />
        </mxCell>
        <mxCell id="WbdaYALbMlaz5bzxNm2c-1" value="" style="image;aspect=fixed;html=1;points=[];align=center;fontSize=12;image=img/lib/azure2/networking/Network_Security_Groups.svg;" vertex="1" parent="1">
          <mxGeometry x="306.4" y="569" width="26.35" height="32" as="geometry" />
        </mxCell>
        <mxCell id="WbdaYALbMlaz5bzxNm2c-2" value="" style="image;aspect=fixed;html=1;points=[];align=center;fontSize=12;image=img/lib/azure2/networking/Network_Security_Groups.svg;" vertex="1" parent="1">
          <mxGeometry x="600.4" y="569" width="26.35" height="32" as="geometry" />
        </mxCell>
        <mxCell id="WbdaYALbMlaz5bzxNm2c-3" value="Back-End-Subnet" style="text;html=1;strokeColor=none;fillColor=none;align=center;verticalAlign=middle;whiteSpace=wrap;rounded=0;" vertex="1" parent="1">
          <mxGeometry x="616.25" y="213" width="110.5" height="23" as="geometry" />
        </mxCell>
        <mxCell id="WbdaYALbMlaz5bzxNm2c-4" value="Internal Load Balancer&lt;br&gt;lb-back-end-02" style="text;html=1;strokeColor=none;fillColor=none;align=center;verticalAlign=middle;whiteSpace=wrap;rounded=0;" vertex="1" parent="1">
          <mxGeometry x="866.5" y="242.5" width="126" height="30" as="geometry" />
        </mxCell>
        <mxCell id="WbdaYALbMlaz5bzxNm2c-5" value="Internal Load Balancer&lt;br&gt;lb-database" style="text;html=1;strokeColor=none;fillColor=none;align=center;verticalAlign=middle;whiteSpace=wrap;rounded=0;" vertex="1" parent="1">
          <mxGeometry x="1126" y="110" width="126" height="30" as="geometry" />
        </mxCell>
        <mxCell id="WbdaYALbMlaz5bzxNm2c-6" value="Internal Load Balancer&lt;br&gt;lb-integration" style="text;html=1;strokeColor=none;fillColor=none;align=center;verticalAlign=middle;whiteSpace=wrap;rounded=0;" vertex="1" parent="1">
          <mxGeometry x="1119" y="432" width="126" height="30" as="geometry" />
        </mxCell>
        <mxCell id="WbdaYALbMlaz5bzxNm2c-7" value="" style="image;aspect=fixed;html=1;points=[];align=center;fontSize=12;image=img/lib/azure2/networking/Network_Security_Groups.svg;" vertex="1" parent="1">
          <mxGeometry x="351" y="829" width="26.35" height="32" as="geometry" />
        </mxCell>
      </root>
    </mxGraphModel>
  </diagram>
</mxfile>
